<svg xmlns="http://www.w3.org/2000/svg" viewBox="0 0 120 120" role="img" aria-label="Cavalluccio marino"><title>Cavalluccio marino</title><circle cx="60" cy="60" r="56" fill="#17415c" stroke="#0d1c2b" stroke-width="4"/><path d="M62 22c10 0 16 8 14 18-2 8-8 12-8 20 0 10 6 14 6 24 0 10-8 16-16 12 6-2 8-8 6-14-3-8-10-12-10-24 0-14 8-18 8-26 0-6-4-10-10-10z" fill="#d5a838" stroke="#0d1c2b" stroke-width="2.5" stroke-linejoin="round" stroke-linecap="round"/><path d="M62 22c-8 0-14 4-16 10l10 2z" fill="#d5a838" stroke="#0d1c2b" stroke-width="2.5" stroke-linejoin="round" stroke-linecap="round"/><circle cx="66" cy="31" r="2.6" fill="#1a1a1f" stroke="#1a1a1f" stroke-width="0"/><path d="M52 46l-8 4M50 58l-8 5M52 70l-7 5" fill="none" stroke="#a8801f" stroke-width="3" stroke-linecap="round" stroke-linejoin="round"/></svg>