<svg xmlns="http://www.w3.org/2000/svg" viewBox="0 0 120 120" role="img" aria-label="Nave drago"><title>Nave drago</title><circle cx="60" cy="60" r="56" fill="#2b2b33" stroke="#0d1c2b" stroke-width="4"/><path d="M18 66h84c-4 14-18 22-42 22S22 80 18 66z" fill="#6b4a2a" stroke="#0d1c2b" stroke-width="2.5" stroke-linejoin="round" stroke-linecap="round"/><path d="M18 66c-4-10 0-18 8-22-2 8 0 14 6 16z" fill="#6b4a2a" stroke="#0d1c2b" stroke-width="2.5" stroke-linejoin="round" stroke-linecap="round"/><path d="M102 66c6-10 4-20-4-26 0 8-4 12-10 14z" fill="#6b4a2a" stroke="#0d1c2b" stroke-width="2.5" stroke-linejoin="round" stroke-linecap="round"/><path d="M56 20h8v42h-8z" fill="#6b4a2a" stroke="#0d1c2b" stroke-width="2.5" stroke-linejoin="round" stroke-linecap="round"/><path d="M60 24h28l-8 10 8 10H60z" fill="#b83a2e" stroke="#0d1c2b" stroke-width="2.5" stroke-linejoin="round" stroke-linecap="round"/><path d="M30 74h60" fill="none" stroke="#3f2c19" stroke-width="3" stroke-linecap="round" stroke-linejoin="round"/></svg>