<svg xmlns="http://www.w3.org/2000/svg" viewBox="0 0 120 120" role="img" aria-label="Pesce sega"><title>Pesce sega</title><circle cx="60" cy="60" r="56" fill="#17415c" stroke="#0d1c2b" stroke-width="4"/><path d="M18 62l26-6c8-8 22-12 34-10 14 2 24 10 26 18-6 8-18 12-30 11-10-1-20-6-26-13z" fill="#cfd6dc" stroke="#7b868f" stroke-width="2.5" stroke-linejoin="round"/><path d="M18 62l26-6" stroke="#7b868f" stroke-width="2.5"/><path d="M20 58l2 4m5-5l2 4m5-5l2 4m5-5l2 4" stroke="#7b868f" stroke-width="2.5"/><path d="M74 47l10-11 2 14z" fill="#cfd6dc" stroke="#7b868f" stroke-width="2.5" stroke-linejoin="round"/><path d="M104 64l10-9v18z" fill="#cfd6dc" stroke="#7b868f" stroke-width="2.5" stroke-linejoin="round"/><circle cx="66" cy="57" r="3" fill="#0d1c2b"/></svg>