<svg xmlns="http://www.w3.org/2000/svg" viewBox="0 0 91.3 22" role="img" aria-label="Sloop classe Black Swan"><title>Sloop classe Black Swan</title><g color="#aeb9c0"><path d="M0 20 L4.11 13.66 Q30.13 15.68 56.61 15.68 Q77.6 15.68 88.56 15.07 Q91.3 15.07 88.1 20 Z" fill="currentColor"/><path d="M4.11 12.8 L41.09 12.8 L41.09 15.3 L4.11 15.3 Z" fill="currentColor"/><rect x="31.04" y="8" width="10.96" height="4.8" fill="currentColor"/><rect x="31.96" y="6.2" width="6.03" height="1.8" fill="currentColor"/><path d="M47.35 8.1 L50.85 8.1 L51.35 15.3 L47.25 15.3 Z" fill="currentColor"/><path d="M38.35 15.3 L38.35 -1.2" stroke="currentColor" stroke-width="0.55"/><path d="M35.71 3.42 L40.99 3.42" stroke="currentColor" stroke-width="0.45"/><rect x="13.31" y="11.3" width="2.6" height="1.5" fill="currentColor"/><path d="M15.21 11.65 L18.81 11.25" stroke="currentColor" stroke-width="0.4"/><rect x="23.35" y="11.3" width="2.6" height="1.5" fill="currentColor"/><path d="M25.25 11.65 L28.85 11.25" stroke="currentColor" stroke-width="0.4"/><rect x="71.74" y="13.8" width="2.6" height="1.5" fill="currentColor"/><path d="M73.64 14.15 L77.24 13.75" stroke="currentColor" stroke-width="0.4"/></g></svg>